<svg width="139" height="53" xmlns="http://www.w3.org/2000/svg">
  <g fill="none" fill-rule="evenodd">
    <path fill="#FFF" d="M25.1792337 29H0v4.1846806h10.7382622V53h4.518845V33.1846806H26V29zM58.3164372 29H38v24h24v-4.1822586H42.5186053v-6.062973h17.2868445v-4.1828641H42.5186053v-5.3872237h16.6211544V29zM80.7432311 29.0076146l6.2713529-.003573c7.105353 0 9.8719202 1.6287078 9.8719202 6.3784606v.9992585h-4.1489748l-.0128487-.8259663c-.0455546-2.6738202-.0455546-2.4528877-7.4621975-2.4528877h-3.091874c-5.8923151 0-6.777126.3983933-6.777126 3.0448203 0 1.802 0 2.6226067 4.5192521 2.6226067h8.6215042c3.8166597 0 8.8878235.6431461 8.8878235 6.2087416v1.4167078c0 6.6011798-6.168563 6.6011798-9.4817857 6.6011798h-8.0871134c-2.6427521 0-8.8311723 0-8.8311723-6.358809v-1.3821685h4.4001092v1.321427c0 1.2690224.294353 2.3242584 3.92529 2.3242584h9.0396722c4.2173067 0 4.638395-.9242247 4.638395-3.1972697 0-1.9580224-.3007773-2.5940224-3.8668866-2.5940224h-5.5307983c-8.3008697 0-12.6349832-.3191911-12.6349832-7.1716742 0-5.7704494 3.7313908-6.9310899 9.7504412-6.9310899zM117.760333 29.0099371c-5.962399 0-8.504698 2.6934719-8.504698 9.0094045v5.9699438c0 6.3141461 2.542299 9.01 8.504698 9.01h12.394945c5.958311 0 8.501193-2.6958539 8.501193-9.01v-5.9699438c0-6.3159326-2.542882-9.0094045-8.501193-9.0094045h-12.394945zm-3.927626 16.0905618V36.903364c0-2.7327752 1.183836-3.7969438 4.220227-3.7969438h11.803903c3.038727 0 4.221979 1.0641686 4.221979 3.7969438v8.1971349c0 2.7327753-1.183252 3.7969438-4.221979 3.7969438h-11.803903c-3.036391.0029775-4.220227-1.0641685-4.220227-3.7969438z"/>
    <path d="M65.8077395 2.71669663v1.32916854h1.2101176V2.71669663h1.3532059V1.49948315h-1.3532059V.10957303h-1.2101176v1.38991012h-1.3432773v1.21721348h1.3432773zM53.621995 20.3262742h25.5602311l-1.4040169 1.9782696H55.0265958l-1.4046008-1.9782696zm1.4830365-1.1340214h-2.2876597l-3.7465756-5.2779663c-.2744958-.3870786-.4228403-.852764-.4228403-1.3303595 0-1.2523483.9957773-2.2670899 2.224584-2.2670899h2.8080336l.7942857 1.8895393h-2.8763655c-.155937 0-.3077857.050618-.434521.1435169-.3317311.2447528-.4059034.7175842-.1664496 1.0558314l4.1075084 5.7865281zm22.5936908 0l4.1069243-5.7865281c.0916933-.1298202.1407521-.2840562.1407521-.4430562 0-.4180449-.3317311-.7562921-.7405546-.7562921h-2.8944706v-.0827753l.7621639-1.806764h2.8582605c.468395 0 .9245252.1506629 1.303563.429955.9957773.734854 1.2177101 2.1527528.4981807 3.1674944l-3.7471597 5.2779663h-2.2876596zm-6.1922748 0l3.3926512-8.0780337c.0397143-.0940899.0595715-.1953258.0595715-.2977528 0-.4174494-.3317311-.7556966-.7405547-.7556966H69.013208V7.79189326h5.2043235c.4012311 0 .798374.08396629 1.1674832.24534831 1.5050546.6568427 2.2029748 2.43442693 1.5587857 3.96964043l-3.0171176 7.1853708h-2.4202353zm-6.3977962.0002978V5.09097753h2.6164705V19.1925506h-2.6164705zm-9.2472963-7.1859068c-.1582731-.375764-.2400378-.7813034-.2400378-1.1904157 0-1.66979776 1.3275084-3.02397754 2.9657227-3.02397754h5.2031555v2.26828094h-5.2031555c-.1004538 0-.1997395.0208427-.2920168.0607415-.3767017.1643596-.5507437.6086068-.3895504.9927079l3.3926512 8.0780337h-2.4196512l-3.0171177-7.1853708z" fill="gold"/>
  </g>
</svg>
